HIERARCHY
ROOT Pelvis
{
	OFFSET 0.000000 0.941512 0.000000
	CHANNELS 6 Xposition Yposition Zposition Zrotation Yrotation Xrotation 
	JOINT Pelvis_L_Hip
	{
		OFFSET 0.000000 0.000000 0.000000
		CHANNELS 3 Zrotation Yrotation Xrotation
		JOINT L_Hip
		{
			OFFSET 0.062321 -0.080322 -0.016990
			CHANNELS 3 Zrotation Yrotation Xrotation
			JOINT L_Knee
			{
				OFFSET 0.093051 -0.381305 -0.029784
				CHANNELS 3 Zrotation Yrotation Xrotation
				JOINT L_Ankle
				{
					OFFSET -0.010371 -0.431000 -0.033614
					CHANNELS 3 Zrotation Yrotation Xrotation
					End Site #name: L_Foot
					{
						OFFSET 0.069299 -0.038670 0.119418
					}
				}
			}
		}
	}
	JOINT Pelvis_R_Hip
	{
		OFFSET 0.000000 0.000000 0.000000
		CHANNELS 3 Zrotation Yrotation Xrotation
		JOINT R_Hip
		{
			OFFSET -0.055334 -0.094904 -0.002373
			CHANNELS 3 Zrotation Yrotation Xrotation
			JOINT R_Knee
			{
				OFFSET -0.064207 -0.384370 -0.019592
				CHANNELS 3 Zrotation Yrotation Xrotation
				JOINT R_Ankle
				{
					OFFSET 0.025418 -0.419734 -0.065953
					CHANNELS 3 Zrotation Yrotation Xrotation
					End Site #name: R_Foot
					{
						OFFSET -0.057233 -0.039888 0.132134
					}
				}
			}
		}
	}
	JOINT Pelvis_Spine1
	{
		OFFSET 0.000000 0.000000 0.000000
		CHANNELS 3 Zrotation Yrotation Xrotation
		JOINT Spine1
		{
			OFFSET -0.005562 0.124093 -0.043360
			CHANNELS 3 Zrotation Yrotation Xrotation
			JOINT Spine2
			{
				OFFSET 0.012244 0.139499 0.029894
				CHANNELS 3 Zrotation Yrotation Xrotation
				JOINT Spine3
				{
					OFFSET -0.002556 0.056561 0.009225
					CHANNELS 3 Zrotation Yrotation Xrotation
					JOINT Spine3_Neck
					{
						OFFSET 0.000000 0.000000 0.000000
						CHANNELS 3 Zrotation Yrotation Xrotation
						JOINT Neck
						{
							OFFSET -0.005205 0.217920 -0.024551
							CHANNELS 3 Zrotation Yrotation Xrotation
							End Site #name: Head
							{
								OFFSET 0.002365 0.091850 0.046637
							}
						}
					}
					JOINT Spine3_L_Collar
					{
						OFFSET 0.000000 0.000000 0.000000
						CHANNELS 3 Zrotation Yrotation Xrotation
						JOINT L_Collar
						{
							OFFSET 0.072225 0.116603 -0.009480
							CHANNELS 3 Zrotation Yrotation Xrotation
							JOINT L_Shoulder
							{
								OFFSET 0.115937 -0.058643 -0.021018
								CHANNELS 3 Zrotation Yrotation Xrotation
								JOINT L_Elbow
								{
									OFFSET 0.021994 -0.254722 -0.024492
									CHANNELS 3 Zrotation Yrotation Xrotation
									End Site #name: L_Wrist
									{
										OFFSET 0.048810 -0.240214 0.103329
									}
								}
							}
						}
					}
					JOINT Spine3_R_Collar
					{
						OFFSET 0.000000 0.000000 0.000000
						CHANNELS 3 Zrotation Yrotation Xrotation
						JOINT R_Collar
						{
							OFFSET -0.073372 0.120704 -0.024611
							CHANNELS 3 Zrotation Yrotation Xrotation
							JOINT R_Shoulder
							{
								OFFSET -0.108089 -0.054969 -0.020504
								CHANNELS 3 Zrotation Yrotation Xrotation
								JOINT R_Elbow
								{
									OFFSET -0.033684 -0.260739 0.009889
									CHANNELS 3 Zrotation Yrotation Xrotation
									End Site #name: R_Wrist
									{
										OFFSET -0.067980 -0.232763 0.118463
									}
								}
							}
						}
					}
				}
			}
		}
	}
}
MOTION
Frames: 8
Frame Time: 0.041667
0.011582 0.943558 1.490239 -0.789998 0.625841 -3.168533 0.000000 0.000000 0.000000 1.375467 -2.989513 -12.487290 -8.482333 3.227942 49.941232 5.795101 8.361057 -5.724246 0.000000 0.000000 0.000000 6.256566 -0.290413 0.019418 0.965332 -0.317527 -3.204950 2.530186 4.346024 2.662685 0.000000 0.000000 0.000000 0.604605 -0.355314 2.425601 2.600483 -0.463102 -1.711145 1.116711 1.837388 3.725531 0.000000 0.000000 0.000000 0.870408 -0.170530 -6.923168 0.000000 0.000000 0.000000 -1.128310 2.216188 0.872077 1.179528 -0.266331 -2.021835 5.519813 2.868364 3.609461 0.000000 0.000000 0.000000 0.044800 -0.021269 0.003013 -3.368087 -0.143153 0.438456 -9.430727 -4.930540 1.195061 
0.010697 0.944603 1.519871 -0.045931 -0.448311 -3.102889 0.000000 0.000000 0.000000 1.590104 -3.875662 -16.412367 -8.791032 3.224508 43.730110 6.709795 11.928916 -5.328803 0.000000 0.000000 0.000000 5.551904 -0.664402 1.886775 0.590462 -0.263286 -3.098002 2.385452 5.977710 1.281327 0.000000 0.000000 0.000000 0.287957 -0.283752 2.499330 2.189174 -0.398628 -1.684002 0.929786 2.174027 3.836908 0.000000 0.000000 0.000000 0.288540 0.067485 -6.626825 0.000000 0.000000 0.000000 -1.472924 3.101216 1.230133 1.146822 -0.217376 -1.398519 5.794562 2.951877 3.451393 0.000000 0.000000 0.000000 -0.347353 0.999423 -0.446157 -4.482900 -0.048269 -1.015329 -8.737998 -3.839905 -2.786309 
0.011239 0.943923 1.548156 0.375733 -1.635482 -2.712620 0.000000 0.000000 0.000000 1.718844 -4.445349 -19.054463 -7.533076 2.240802 33.943185 6.502493 12.932962 -4.284531 0.000000 0.000000 0.000000 4.934945 -0.911632 3.231859 0.468432 -0.236831 -2.902502 2.168583 7.520901 -0.093444 0.000000 0.000000 0.000000 0.391286 -0.273170 2.163223 1.720864 -0.316059 -1.292960 0.747206 2.359315 3.682563 0.000000 0.000000 0.000000 -0.448586 0.380469 -6.583526 0.000000 0.000000 0.000000 -2.232448 3.704454 1.354505 1.233171 -0.197938 -1.026212 6.006565 3.075587 3.761741 0.000000 0.000000 0.000000 -0.720104 2.094202 -0.946437 -5.843650 -0.002540 -2.431494 -7.892062 -2.709000 -6.090184 
0.013092 0.941769 1.576428 0.384061 -2.855268 -2.371516 0.000000 0.000000 0.000000 1.971134 -4.606505 -20.030003 -5.429464 1.084440 22.022907 4.953281 10.550127 -2.817710 0.000000 0.000000 0.000000 4.571155 -1.139764 4.468529 0.506133 -0.210422 -2.339624 1.714176 8.899502 -1.749715 0.000000 0.000000 0.000000 0.913378 -0.338658 1.598474 1.171537 -0.206572 -0.531829 0.636887 2.418530 3.491322 0.000000 0.000000 0.000000 -1.075700 0.646843 -6.867928 0.000000 0.000000 0.000000 -3.101781 4.093529 1.351586 1.074521 -0.190028 -1.088452 6.407457 3.310846 4.376796 0.000000 0.000000 0.000000 -1.144113 3.319558 -1.517346 -7.202470 0.012421 -3.955634 -6.877096 -1.749494 -7.777023 
0.015704 0.938918 1.606059 0.086755 -3.973230 -2.230889 0.000000 0.000000 0.000000 2.334087 -4.512916 -19.921400 -3.354235 0.369308 10.347789 2.240483 5.545817 -0.794452 0.000000 0.000000 0.000000 4.454841 -1.424701 5.931613 0.469517 -0.152240 -1.398034 1.010734 10.140205 -3.723510 0.000000 0.000000 0.000000 1.594956 -0.407404 0.725394 0.672113 -0.083400 0.634590 0.540882 2.341557 3.231171 0.000000 0.000000 0.000000 -1.428638 0.787199 -7.134745 0.000000 0.000000 0.000000 -3.629674 4.242233 1.315896 0.588469 -0.141698 -1.022627 6.625551 3.404504 4.477534 0.000000 0.000000 0.000000 -1.490758 4.402366 -2.036450 -8.269852 0.006243 -5.373691 -5.892305 -1.199068 -7.622926 
0.018850 0.935424 1.637376 -0.305669 -4.995566 -2.121976 0.000000 0.000000 0.000000 2.630864 -4.451397 -19.918217 -1.821414 0.141085 1.745782 -0.280329 1.801080 1.591421 0.000000 0.000000 0.000000 4.466154 -1.754927 7.590038 0.133613 -0.043973 -0.386161 0.221515 11.236001 -5.707077 0.000000 0.000000 0.000000 2.150683 -0.417076 -0.390969 0.346030 0.026032 1.948600 0.405234 2.173533 2.772667 0.000000 0.000000 0.000000 -1.636006 0.859134 -7.039475 0.000000 0.000000 0.000000 -3.839269 4.239300 1.284395 0.109352 -0.073575 -0.738982 6.574730 3.331179 4.062392 0.000000 0.000000 0.000000 -1.561282 5.136115 -2.417330 -8.901641 -0.010482 -6.345047 -5.237185 -1.161757 -6.173665 
0.023153 0.930760 1.670405 -0.595041 -6.073905 -1.799017 0.000000 0.000000 0.000000 2.663586 -4.509150 -20.361991 -1.125671 0.130572 -2.275043 -1.090352 2.111863 3.306485 0.000000 0.000000 0.000000 4.367899 -2.030493 9.075158 -0.486349 0.116782 0.637647 -0.583264 12.053625 -7.521242 0.000000 0.000000 0.000000 2.446419 -0.359026 -1.587487 0.172501 0.097435 2.858116 0.201727 2.027916 2.310864 0.000000 0.000000 0.000000 -1.861116 0.939197 -6.726808 0.000000 0.000000 0.000000 -3.848848 4.383499 1.363806 -0.032327 -0.029957 -0.389778 6.257214 3.082987 3.094735 0.000000 0.000000 0.000000 -1.446435 5.507914 -2.633158 -8.945810 -0.014937 -6.593927 -5.069303 -1.499305 -4.382145 
0.029006 0.925135 1.705821 -0.732793 -7.209070 -1.228815 0.000000 0.000000 0.000000 2.340661 -4.597460 -20.765082 -1.244489 0.140304 -2.246462 -0.743931 4.603652 4.377798 0.000000 0.000000 0.000000 4.081258 -2.178519 10.089102 -1.375188 0.365411 2.047391 -1.389639 12.443995 -9.104348 0.000000 0.000000 0.000000 2.404408 -0.236668 -2.763616 0.126956 0.122387 3.216560 -0.010261 1.916691 1.912284 0.000000 0.000000 0.000000 -2.073226 1.016361 -6.313787 0.000000 0.000000 0.000000 -4.020324 4.768710 1.518183 0.445937 -0.072319 -0.309045 6.038269 2.904740 2.405158 0.000000 0.000000 0.000000 -1.123760 5.529674 -2.693776 -8.738965 -0.049238 -5.831438 -5.110476 -1.872672 -2.909972 
